<?xml version="1.0" encoding="iso-8859-1"?>
<!-- Generator: Adobe Illustrator 19.0.0, SVG Export Plug-In . SVG Version: 6.00 Build 0)  -->
<svg version="1.1" id="Capa_1" xmlns="http://www.w3.org/2000/svg" xmlns:xlink="http://www.w3.org/1999/xlink" x="0px" y="0px"
	 viewBox="0 0 490.667 490.667" style="enable-background:new 0 0 490.667 490.667;" xml:space="preserve">
<g>
	<g>
		<path d="M437.333,149.333h-384c-5.888,0-10.667,4.779-10.667,10.667v64c0,111.744,90.923,202.667,202.667,202.667
			S448,335.744,448,224v-64C448,154.112,443.221,149.333,437.333,149.333z M426.667,224c0,99.989-81.344,181.333-181.333,181.333
			S64,323.989,64,224v-53.333h362.667V224z"/>
	</g>
</g>
<g>
	<g>
		<path d="M245.333,192c-52.928,0-96,43.072-96,96s43.072,96,96,96s96-43.072,96-96C341.333,235.072,298.261,192,245.333,192z
			 M245.333,362.667c-41.173,0-74.667-33.493-74.667-74.667s33.493-74.667,74.667-74.667S320,246.827,320,288
			S286.507,362.667,245.333,362.667z"/>
	</g>
</g>
<g>
	<g>
		<path d="M245.333,234.667C215.915,234.667,192,258.603,192,288s23.915,53.333,53.333,53.333s53.333-23.936,53.333-53.333
			S274.752,234.667,245.333,234.667z M245.333,320c-17.643,0-32-14.357-32-32c0-17.643,14.357-32,32-32s32,14.357,32,32
			C277.333,305.643,262.976,320,245.333,320z"/>
	</g>
</g>
<g>
	<g>
		<path d="M480,64H10.667C4.779,64,0,68.779,0,74.667v64c0,17.643,14.357,32,32,32h426.667c17.643,0,32-14.357,32-32v-64
			C490.667,68.779,485.888,64,480,64z M469.333,138.667c0,5.888-4.8,10.667-10.667,10.667H32c-5.867,0-10.667-4.779-10.667-10.667
			V85.333h448V138.667z"/>
	</g>
</g>
<g>
	<g>
		<circle cx="373.333" cy="224" r="10.667"/>
	</g>
</g>
<g>
</g>
<g>
</g>
<g>
</g>
<g>
</g>
<g>
</g>
<g>
</g>
<g>
</g>
<g>
</g>
<g>
</g>
<g>
</g>
<g>
</g>
<g>
</g>
<g>
</g>
<g>
</g>
<g>
</g>
</svg>
